<?xml-stylesheet type="text/css" href="./name.scss"?>

<svg width="915" height="134" viewBox="0 0 915 134" fill="none" xmlns="http://www.w3.org/2000/svg" id='name'>
<path d="M54.3045 8.17599C57.6325 8.17599 60.0645 8.47466 61.6005 9.072C63.2218 9.584 64.3738 10.48 65.0565 11.76C65.9952 13.7227 66.4645 16.368 66.4645 19.696V69.232C66.4645 78.192 63.2218 86.128 56.7365 93.04C50.2512 99.8667 41.9738 103.28 31.9045 103.28C26.2725 103.28 21.2805 102.043 16.9285 99.568C13.0032 97.4347 10.2725 95.5147 8.73648 93.808L7.71249 92.784C4.72582 89.6267 3.23248 86.9387 3.23248 84.72C3.23248 82.416 4.72582 79.728 7.71249 76.656C10.6992 73.584 13.3445 72.048 15.6485 72.048C17.9525 72.048 20.5125 73.456 23.3285 76.272C26.1445 79.088 29.1738 80.496 32.4165 80.496C35.7445 80.496 38.4752 79.3867 40.6085 77.168C42.7418 74.9493 43.8085 72.0053 43.8085 68.336V20.464C43.8085 15.344 44.6618 12.0587 46.3685 10.608C48.3312 8.98666 50.9765 8.17599 54.3045 8.17599Z" stroke="white" stroke-width="5"/>
<path d="M120.458 41.712C120.97 36.9333 124.341 34.544 130.57 34.544C133.898 34.544 136.373 34.8 137.994 35.312C139.616 35.824 140.725 36.72 141.322 38C142.005 39.28 142.389 40.432 142.474 41.456C142.645 42.3947 142.73 43.8453 142.73 45.808V90.608C142.73 92.5707 142.645 94.064 142.474 95.088C142.389 96.0267 142.048 97.136 141.45 98.416C140.256 100.635 137.312 101.744 132.618 101.744C128.01 101.744 124.896 101.189 123.274 100.08C121.738 98.8853 120.842 97.1787 120.586 94.96C117.429 99.4827 112.138 101.744 104.714 101.744C97.3758 101.744 90.5491 98.3733 84.2345 91.632C77.9198 84.8907 74.7625 77.0827 74.7625 68.208C74.7625 59.248 77.9198 51.44 84.2345 44.784C90.6345 38.0427 97.6318 34.672 105.226 34.672C108.128 34.672 110.773 35.184 113.162 36.208C115.552 37.232 117.216 38.2133 118.154 39.152C119.093 40.0053 119.861 40.8587 120.458 41.712ZM97.1625 68.336C97.1625 71.152 98.2718 73.712 100.49 76.016C102.709 78.2347 105.397 79.344 108.554 79.344C111.712 79.344 114.314 78.192 116.362 75.888C118.496 73.584 119.562 71.0667 119.562 68.336C119.562 65.52 118.538 62.9173 116.49 60.528C114.528 58.1387 111.84 56.944 108.426 56.944C105.098 56.944 102.368 58.1387 100.234 60.528C98.1865 62.9173 97.1625 65.52 97.1625 68.336Z" stroke="white" stroke-width="5"/>
<path d="M174.052 68.336C174.052 71.92 175.247 74.736 177.636 76.784C180.026 78.7467 182.543 79.728 185.188 79.728C187.919 79.728 190.436 78.96 192.74 77.424C195.13 75.8027 197.05 74.992 198.5 74.992C201.06 74.992 204.175 77.2533 207.844 81.776C209.807 84.2507 210.788 86.4693 210.788 88.432C210.788 91.6747 208.442 94.704 203.748 97.52C198.884 100.933 192.911 102.64 185.828 102.64C177.892 102.64 170.255 99.7813 162.916 94.064C159.418 91.3333 156.559 87.7067 154.34 83.184C152.122 78.576 151.012 73.5413 151.012 68.08C151.012 62.5333 152.122 57.5413 154.34 53.104C156.559 48.5813 159.418 44.9547 162.916 42.224C169.999 36.592 177.551 33.776 185.572 33.776C188.815 33.776 191.972 34.2453 195.044 35.184C198.116 36.0373 200.378 36.8907 201.828 37.744L203.876 39.024C205.412 40.048 206.607 40.8587 207.46 41.456C209.679 43.1627 210.788 45.1253 210.788 47.344C210.788 49.4773 209.892 51.9093 208.1 54.64C205.028 59.3333 202.084 61.68 199.268 61.68C197.647 61.68 195.343 60.7413 192.356 58.864C190.82 57.4133 188.602 56.688 185.7 56.688C182.884 56.688 180.239 57.712 177.764 59.76C175.29 61.808 174.052 64.6667 174.052 68.336Z" stroke="white" stroke-width="5"/>
<path d="M258.737 68.208L275.761 82.288C277.895 84.08 279.217 85.4453 279.729 86.384C280.327 87.3227 280.625 88.2187 280.625 89.072C280.625 91.12 279.303 93.8933 276.657 97.392C273.756 100.976 271.196 102.768 268.977 102.768C267.1 102.768 264.497 101.531 261.169 99.056L259.889 98.16C257.927 96.5387 254.897 93.7227 250.801 89.712C246.705 85.616 243.591 82.7147 241.457 81.008V90.864C241.457 92.8267 241.372 94.32 241.201 95.344C241.116 96.2827 240.732 97.392 240.049 98.672C238.94 100.891 235.655 102 230.193 102C224.817 102 221.532 100.848 220.337 98.544C219.74 97.264 219.356 96.1547 219.185 95.216C219.1 94.192 219.057 92.6987 219.057 90.736V14.064C219.057 12.1013 219.1 10.6507 219.185 9.712C219.356 8.688 219.74 7.536 220.337 6.256C221.532 3.952 224.86 2.8 230.321 2.8C234.417 2.8 237.319 3.52533 239.025 4.976C240.476 6.17066 241.244 8.048 241.329 10.608C241.415 11.376 241.457 12.5707 241.457 14.192V54.768C242.993 53.488 245.297 51.312 248.369 48.24C251.527 45.168 253.873 42.992 255.409 41.712L256.945 40.688C259.932 38.384 262.492 37.232 264.625 37.232C266.759 37.232 269.191 38.9813 271.922 42.48C274.738 45.8933 276.146 48.5813 276.146 50.544C276.146 52.5067 274.567 54.8107 271.409 57.456L258.737 68.208Z" stroke="white" stroke-width="5"/>
<path d="M288.194 95.984C286.573 94.96 285.763 93.3387 285.763 91.12C285.763 88.9013 287.384 85.5307 290.626 81.008C291.565 79.5573 293.059 78.832 295.107 78.832C297.24 78.832 300.098 79.8987 303.682 82.032C307.266 84.08 310.509 85.104 313.41 85.104C318.616 85.104 321.219 84.08 321.219 82.032C321.219 80.4107 318.36 79.216 312.643 78.448C307.267 77.68 301.933 75.6747 296.642 72.432C294.168 70.896 292.12 68.5067 290.498 65.264C288.877 61.936 288.066 58.0107 288.066 53.488C288.066 40.0053 297.325 33.264 315.842 33.264C321.901 33.264 328.131 34.7147 334.531 37.616C337.517 38.9813 339.01 40.688 339.01 42.736C339.01 44.784 338.072 47.3013 336.195 50.288C334.317 53.2747 332.397 54.768 330.435 54.768C329.411 54.768 327.49 54.128 324.674 52.848C321.944 51.568 318.957 50.928 315.714 50.928C310.68 50.928 308.162 51.8667 308.162 53.744C308.162 56.304 311.064 57.968 316.867 58.736C322.499 59.3333 327.96 60.9547 333.25 63.6C335.725 64.7947 337.773 66.8853 339.394 69.872C341.101 72.7733 341.954 76.4427 341.954 80.88C341.954 85.3173 341.101 89.1147 339.394 92.272C337.773 95.344 335.469 97.648 332.482 99.184C327.021 101.829 320.152 103.152 311.875 103.152C303.683 103.152 295.789 100.763 288.194 95.984Z" stroke="white" stroke-width="5"/>
<path d="M348.388 68.336C348.388 58.096 351.971 49.648 359.139 42.992C366.307 36.336 374.5 33.008 383.716 33.008C392.932 33.008 401.081 36.336 408.164 42.992C415.246 49.5627 418.787 57.968 418.787 68.208C418.787 75.2907 416.953 81.6053 413.284 87.152C409.614 92.6133 405.134 96.6667 399.844 99.312C394.638 101.872 389.219 103.152 383.587 103.152C377.955 103.152 372.494 101.787 367.203 99.056C361.913 96.24 357.433 92.144 353.763 86.768C350.179 81.3067 348.388 75.1627 348.388 68.336ZM375.139 77.552C377.87 79.6 380.643 80.624 383.459 80.624C386.275 80.624 389.091 79.5573 391.907 77.424C394.723 75.2907 396.131 72.1333 396.131 67.952C396.131 63.7707 394.809 60.656 392.164 58.608C389.518 56.56 386.659 55.536 383.587 55.536C380.515 55.536 377.657 56.6027 375.011 58.736C372.366 60.8693 371.043 64.0267 371.043 68.208C371.043 72.304 372.409 75.4187 375.139 77.552Z" stroke="white" stroke-width="5"/>
<path d="M464.561 34.544C473.095 34.544 480.178 37.8293 485.81 44.4C491.527 50.8853 494.385 58.8213 494.385 68.208V90.736C494.385 92.6987 494.3 94.192 494.13 95.216C494.044 96.1547 493.703 97.2213 493.106 98.416C491.911 100.72 488.583 101.872 483.122 101.872C477.063 101.872 473.564 100.293 472.625 97.136C472.113 95.6853 471.857 93.5093 471.857 90.608V68.08C471.857 64.5813 470.834 61.8507 468.786 59.888C466.823 57.9253 464.135 56.944 460.721 56.944C457.393 56.944 454.663 57.968 452.529 60.016C450.481 62.064 449.457 64.752 449.457 68.08V90.736C449.457 92.6987 449.372 94.192 449.201 95.216C449.116 96.1547 448.732 97.2213 448.049 98.416C446.94 100.72 443.655 101.872 438.193 101.872C432.817 101.872 429.532 100.72 428.337 98.416C427.74 97.136 427.356 96.0267 427.185 95.088C427.1 94.064 427.057 92.5707 427.057 90.608V45.296C427.057 43.4187 427.1 42.0107 427.185 41.072C427.356 40.048 427.783 38.9387 428.466 37.744C429.66 35.6107 432.945 34.544 438.321 34.544C443.527 34.544 446.727 35.5253 447.922 37.488C448.775 38.9387 449.201 40.688 449.201 42.736C449.543 42.1387 450.311 41.2853 451.505 40.176C452.7 39.0667 453.852 38.1707 454.961 37.488C457.863 35.5253 461.063 34.544 464.561 34.544Z" stroke="white" stroke-width="5"/>
<path d="M577.25 54.896C590.306 67.44 599.564 76.8693 605.026 83.184C607.842 86.3413 609.25 89.0293 609.25 91.248C609.25 93.3813 607.543 95.9413 604.13 98.928C600.716 101.829 597.9 103.28 595.682 103.28C593.548 103.28 590.945 101.488 587.873 97.904L559.714 65.776V90.736C559.714 92.784 559.628 94.2773 559.458 95.216C559.372 96.1547 558.988 97.264 558.305 98.544C557.111 100.848 553.783 102 548.321 102C542.348 102 538.85 100.379 537.826 97.136C537.314 95.7707 537.057 93.5947 537.057 90.608V19.44C537.057 17.4773 537.1 16.0267 537.185 15.088C537.356 14.064 537.783 12.912 538.466 11.632C539.66 9.328 542.988 8.17599 548.45 8.17599C554.423 8.17599 557.964 9.75466 559.073 12.912C559.5 14.3627 559.714 16.5813 559.714 19.568V44.016C571.319 30.96 580.705 20.2507 587.873 11.888C590.86 8.38933 593.463 6.63999 595.682 6.63999C597.9 6.63999 600.716 8.13333 604.13 11.12C607.543 14.0213 609.25 16.5813 609.25 18.8C609.25 20.9333 607.969 23.4933 605.409 26.48C600.46 32.1973 592.78 40.048 582.37 50.032L577.25 54.896Z" stroke="white" stroke-width="5"/>
<path d="M644.885 101.744C636.266 101.744 629.098 98.5013 623.38 92.016C617.748 85.4453 614.932 77.4667 614.932 68.08V45.68C614.932 43.632 614.975 42.1387 615.06 41.2C615.231 40.2613 615.615 39.152 616.213 37.872C617.407 35.568 620.735 34.416 626.196 34.416C632.17 34.416 635.669 36.0373 636.693 39.28C637.205 40.6453 637.461 42.8213 637.461 45.808V68.208C637.461 71.7067 638.442 74.4373 640.404 76.4C642.452 78.3627 645.141 79.344 648.469 79.344C651.882 79.344 654.613 78.32 656.661 76.272C658.794 74.224 659.86 71.536 659.86 68.208V45.552C659.86 43.5893 659.903 42.1387 659.989 41.2C660.159 40.176 660.586 39.024 661.268 37.744C662.378 35.5253 665.663 34.416 671.125 34.416C676.501 34.416 679.786 35.568 680.981 37.872C681.578 39.152 681.919 40.304 682.005 41.328C682.175 42.2667 682.26 43.7173 682.26 45.68V90.992C682.26 92.8693 682.175 94.32 682.005 95.344C681.919 96.2827 681.535 97.3493 680.852 98.544C679.572 100.763 676.287 101.872 670.997 101.872C665.791 101.872 662.591 100.848 661.396 98.8C660.543 97.3493 660.117 95.6 660.117 93.552C659.775 94.1493 659.007 95.0027 657.812 96.112C656.618 97.2213 655.466 98.16 654.357 98.928C651.455 100.805 648.298 101.744 644.885 101.744Z" stroke="white" stroke-width="5"/>
<path d="M692.557 120.304V45.552C692.557 43.5893 692.6 42.1387 692.685 41.2C692.856 40.2613 693.24 39.1947 693.838 38C695.032 35.696 697.891 34.544 702.414 34.544C706.936 34.544 709.966 35.1413 711.502 36.336C713.123 37.4453 714.062 39.1093 714.318 41.328C717.56 36.8907 722.637 34.672 729.549 34.672C736.547 34.672 743.16 37.9573 749.39 44.528C755.619 51.0987 758.734 58.736 758.734 67.44C758.734 76.144 755.619 83.7813 749.39 90.352C743.246 96.9227 736.675 100.208 729.677 100.208C722.68 100.208 717.603 98.2453 714.445 94.32V120.176C714.445 122.139 714.36 123.589 714.19 124.528C714.104 125.467 713.72 126.533 713.037 127.728C712.44 129.008 711.374 129.904 709.838 130.416C708.302 130.928 706.211 131.184 703.565 131.184C700.92 131.184 698.787 130.928 697.166 130.416C695.63 129.904 694.52 129.051 693.838 127.856C693.24 126.661 692.856 125.595 692.685 124.656C692.6 123.717 692.557 122.267 692.557 120.304ZM717.901 60.016C715.939 62.32 714.958 64.8373 714.958 67.568C714.958 70.2987 715.939 72.816 717.901 75.12C719.949 77.3387 722.509 78.448 725.581 78.448C728.739 78.448 731.384 77.3387 733.518 75.12C735.736 72.9013 736.846 70.384 736.846 67.568C736.846 64.752 735.821 62.2347 733.773 60.016C731.725 57.712 729.037 56.56 725.709 56.56C722.467 56.56 719.864 57.712 717.901 60.016Z" stroke="white" stroke-width="5"/>
<path d="M812.882 35.312C814.503 35.824 815.825 36.72 816.849 38C817.959 39.1947 818.513 41.1573 818.513 43.888C818.513 46.6187 817.703 49.6053 816.081 52.848C814.46 56.0907 812.114 57.712 809.042 57.712C807.506 57.712 806.012 57.3707 804.562 56.688C803.196 56.0053 801.361 55.664 799.057 55.664C796.753 55.664 794.577 56.4747 792.529 58.096C790.567 59.7173 789.586 61.68 789.586 63.984V90.864C789.586 92.8267 789.5 94.32 789.33 95.344C789.244 96.2827 788.86 97.392 788.177 98.672C786.897 100.891 783.569 102 778.193 102C774.097 102 771.154 101.275 769.362 99.824C767.996 98.6293 767.228 96.7947 767.057 94.32C767.057 93.4667 767.057 92.2293 767.057 90.608V45.68C767.057 43.7173 767.1 42.2667 767.185 41.328C767.356 40.304 767.74 39.1947 768.338 38C769.532 35.696 772.86 34.544 778.321 34.544C783.441 34.544 786.642 35.5253 787.922 37.488C788.86 38.8533 789.33 40.2613 789.33 41.712C789.756 41.1147 790.354 40.3893 791.122 39.536C791.975 38.6827 793.724 37.5307 796.37 36.08C799.015 34.6293 801.319 33.904 803.281 33.904C805.329 33.904 807.036 34.032 808.401 34.288C809.767 34.4587 811.26 34.8 812.882 35.312Z" stroke="white" stroke-width="5"/>
<path d="M825.557 45.808C825.557 43.8453 825.6 42.3947 825.685 41.456C825.856 40.432 826.24 39.28 826.838 38C828.032 35.7813 831.36 34.672 836.821 34.672C840.917 34.672 843.819 35.3973 845.526 36.848C846.976 38.0427 847.744 39.8773 847.83 42.352C847.915 43.2053 847.958 44.4427 847.958 46.064V90.864C847.958 92.8267 847.872 94.32 847.701 95.344C847.616 96.2827 847.232 97.392 846.549 98.672C845.44 100.891 842.155 102 836.693 102C831.317 102 828.032 100.848 826.838 98.544C826.24 97.264 825.856 96.1547 825.685 95.216C825.6 94.2773 825.557 92.784 825.557 90.736V45.808ZM846.549 22.128C845.952 23.3227 844.843 24.176 843.221 24.688C841.6 25.2 839.424 25.456 836.693 25.456C834.048 25.456 831.915 25.2 830.294 24.688C828.672 24.176 827.52 23.28 826.838 22C826.24 20.72 825.856 19.6107 825.685 18.672C825.6 17.648 825.557 16.1547 825.557 14.192C825.557 12.2293 825.6 10.7787 825.685 9.84C825.856 8.81599 826.24 7.70666 826.838 6.51199C828.032 4.20799 831.36 3.05599 836.821 3.05599C842.197 3.05599 845.44 4.20799 846.549 6.51199C847.232 7.792 847.616 8.944 847.701 9.96799C847.872 10.9067 847.958 12.3573 847.958 14.32C847.958 16.2827 847.872 17.776 847.701 18.8C847.616 19.7387 847.232 20.848 846.549 22.128Z" stroke="white" stroke-width="5"/>
<path d="M858.695 95.984C857.073 94.96 856.263 93.3387 856.263 91.12C856.263 88.9013 857.884 85.5307 861.127 81.008C862.065 79.5573 863.559 78.832 865.607 78.832C867.74 78.832 870.598 79.8987 874.182 82.032C877.766 84.08 881.009 85.104 883.911 85.104C889.116 85.104 891.719 84.08 891.719 82.032C891.719 80.4107 888.86 79.216 883.143 78.448C877.767 77.68 872.433 75.6747 867.143 72.432C864.668 70.896 862.62 68.5067 860.998 65.264C859.377 61.936 858.567 58.0107 858.567 53.488C858.567 40.0053 867.825 33.264 886.343 33.264C892.401 33.264 898.631 34.7147 905.031 37.616C908.017 38.9813 909.51 40.688 909.51 42.736C909.51 44.784 908.572 47.3013 906.695 50.288C904.817 53.2747 902.897 54.768 900.935 54.768C899.911 54.768 897.99 54.128 895.174 52.848C892.444 51.568 889.457 50.928 886.214 50.928C881.18 50.928 878.662 51.8667 878.662 53.744C878.662 56.304 881.564 57.968 887.367 58.736C892.999 59.3333 898.46 60.9547 903.75 63.6C906.225 64.7947 908.273 66.8853 909.895 69.872C911.601 72.7733 912.455 76.4427 912.455 80.88C912.455 85.3173 911.601 89.1147 909.895 92.272C908.273 95.344 905.969 97.648 902.982 99.184C897.521 101.829 890.652 103.152 882.375 103.152C874.183 103.152 866.289 100.763 858.695 95.984Z" stroke="white" stroke-width="5"/>
</svg>
